<svg width="159" height="26" viewBox="0 0 159 26" fill="none" xmlns="http://www.w3.org/2000/svg">
<path d="M25.256 17.448C25.6187 17.448 25.8 17.9387 25.8 18.92C25.8 19.4533 25.576 20.104 25.128 20.872C24.68 21.6187 24.0933 22.312 23.368 22.952C22.664 23.5707 21.8747 24.0827 21 24.488C20.1253 24.8933 19.272 25.096 18.44 25.096C17.1813 25.096 16.3067 24.7867 15.816 24.168C15.3467 23.528 15.112 22.6 15.112 21.384C15.112 20.1467 15.592 18.0347 16.552 15.048C13.608 14.92 11.464 14.856 10.12 14.856H9.672C9.288 17.224 9.096 19.7093 9.096 22.312C9.096 23.464 8.65867 24.2533 7.784 24.68C7.37867 24.872 6.984 25.0533 6.6 25.224C6.23733 25.3947 5.84267 25.48 5.416 25.48C4.34933 25.48 3.816 24.52 3.816 22.6C3.816 20.68 4.25333 18.216 5.128 15.208C4.18933 15.3147 3.35733 15.4213 2.632 15.528C1.928 15.6347 1.37333 15.688 0.968 15.688C0.562667 15.688 0.36 15.5813 0.36 15.368C0.36 14.728 0.882667 14.0773 1.928 13.416C2.99467 12.7547 4.43467 12.2533 6.248 11.912C8.25333 6.81333 10.7067 3.41067 13.608 1.704C14.6747 1.064 15.8053 0.743999 17 0.743999C19.1333 0.765333 20.6693 1.34133 21.608 2.472C22.568 3.60267 23.048 5.10667 23.048 6.984C23.0693 8.84 22.504 11.2613 21.352 14.248C20.9253 15.4 20.5307 16.4453 20.168 17.384C19.8053 18.3227 19.624 19.08 19.624 19.656C19.624 20.232 19.6667 20.6693 19.752 20.968C19.8373 21.2667 20.04 21.416 20.36 21.416C20.936 21.416 22.2907 20.3067 24.424 18.088C24.808 17.6613 25.0853 17.448 25.256 17.448ZM18.44 7.912C18.44 6.056 17.7467 5.128 16.36 5.128C14.952 5.128 13.736 5.72533 12.712 6.92C11.7093 8.09333 10.9307 9.672 10.376 11.656L17.64 11.752C18.1733 10.0453 18.44 8.76533 18.44 7.912ZM34.162 11.496C34.162 10.0667 35.2713 9.352 37.49 9.352C38.0447 9.352 38.386 9.53333 38.514 9.896C38.6633 10.2587 38.738 10.8133 38.738 11.56C38.738 12.6053 38.5033 14.2267 38.034 16.424C37.5647 18.6213 37.3407 20.104 37.362 20.872C37.362 21.2347 37.4793 21.416 37.714 21.416C38.034 21.416 38.4287 21.2133 38.898 20.808C39.3673 20.4027 39.8367 19.9653 40.306 19.496C40.7753 19.0053 41.202 18.5573 41.586 18.152C41.9913 17.7467 42.2687 17.544 42.418 17.544C42.7167 17.544 42.866 17.9067 42.866 18.632C42.866 20.1253 42.13 21.5653 40.658 22.952C38.1833 24.4027 36.6153 25.128 35.954 25.128C35.89 25.128 35.8367 25.1173 35.794 25.096C34.9833 25.096 34.4073 24.8293 34.066 24.296C33.746 23.7627 33.5433 23.0907 33.458 22.28C33.0313 23.0693 32.4447 23.752 31.698 24.328C30.9513 24.8827 30.098 25.16 29.138 25.16C27.4527 25.16 26.1513 24.84 25.234 24.2C24.338 23.56 23.89 22.6107 23.89 21.352C23.89 20.7973 23.9647 20.2853 24.114 19.816C24.2847 19.3467 24.5513 18.7707 24.914 18.088L25.842 10.216C26.5033 9.704 27.4527 9.448 28.69 9.448C29.6713 9.448 30.226 10.088 30.354 11.368C30.4607 12.4133 30.4073 13.352 30.194 14.184C30.002 14.9947 29.7353 16.0293 29.394 17.288C29.0527 18.5253 28.882 19.624 28.882 20.584C28.882 21.352 29.362 21.736 30.322 21.736C31.3673 21.736 32.274 20.8187 33.042 18.984C33.6393 17.576 34.0447 16.008 34.258 14.28C34.2367 14.1093 34.2153 13.896 34.194 13.64C34.194 13.3627 34.1833 13.096 34.162 12.84C34.162 12.584 34.162 12.328 34.162 12.072V11.496ZM42.6805 23.272C42.4458 22.696 42.2752 22.0347 42.1685 21.288C42.0618 20.52 42.0085 19.4533 42.0085 18.088C42.0085 16.7227 42.2645 14.8773 42.7765 12.552H41.3365C41.0805 12.552 40.9525 12.4453 40.9525 12.232C40.9525 11.72 40.9952 11.304 41.0805 10.984C41.1872 10.6427 41.4218 10.2587 41.7845 9.832H42.5525C42.8512 9.832 43.1712 9.82133 43.5125 9.8C44.5365 6.51467 45.5818 4.872 46.6485 4.872C47.5018 4.89333 48.0992 5.43733 48.4405 6.504C48.5258 6.80267 48.6218 7.12267 48.7285 7.464L47.4165 9.768C48.9098 9.81067 49.8485 9.832 50.2325 9.832C50.6378 9.832 50.8512 9.87467 50.8725 9.96C50.9152 10.024 50.9365 10.1307 50.9365 10.28C50.9365 10.664 50.8405 11.144 50.6485 11.72C50.4778 12.296 50.2752 12.5733 50.0405 12.552L46.8405 12.392C46.3925 14.9947 46.1685 17.1493 46.1685 18.856C46.1685 20.5627 46.4138 21.416 46.9045 21.416C47.3098 21.416 48.0458 21.0853 49.1125 20.424C50.1792 19.7413 50.9472 19.0907 51.4165 18.472C51.8858 17.8533 52.2698 17.544 52.5685 17.544C52.8672 17.544 53.0165 17.9067 53.0165 18.632C53.0165 19.3573 52.7605 20.104 52.2485 20.872C51.7365 21.6187 51.0858 22.312 50.2965 22.952C49.5285 23.5707 48.6645 24.0827 47.7045 24.488C46.7658 24.8933 45.9445 25.096 45.2405 25.096C44.5365 25.096 43.9925 24.936 43.6085 24.616C43.2458 24.2747 42.9365 23.8267 42.6805 23.272ZM64.3568 22.28C62.6714 24.264 60.6448 25.256 58.2768 25.256C55.9301 25.256 54.1701 24.6587 52.9968 23.464C51.8234 22.248 51.2474 20.744 51.2688 18.952C51.2474 16.4133 52.0474 14.2267 53.6688 12.392C55.2901 10.5573 57.4128 9.64 60.0368 9.64C61.2314 9.64 62.1914 9.78933 62.9168 10.088C64.1754 10.6 64.8048 11.08 64.8048 11.528C64.8048 11.8693 63.9194 12.0507 62.1488 12.072C60.3994 12.072 58.9274 12.68 57.7328 13.896C56.5594 15.0907 55.9728 16.6053 55.9728 18.44C55.9728 19.4 56.2501 20.2107 56.8048 20.872C57.3808 21.512 58.1808 21.832 59.2048 21.832C60.2501 21.832 61.1141 21.6187 61.7968 21.192C60.2821 20.168 59.5248 18.6853 59.5248 16.744C59.5034 15.72 59.8661 14.792 60.6128 13.96C61.3808 13.1067 62.3514 12.68 63.5248 12.68C64.7194 12.6587 65.5728 12.9787 66.0848 13.64C66.5968 14.3013 66.8528 15.1547 66.8528 16.2C66.8528 17.224 66.6074 18.312 66.1168 19.464H66.3088C67.2474 19.4427 68.0581 19.112 68.7408 18.472C68.9968 18.216 69.2101 17.992 69.3808 17.8C69.5728 17.608 69.7648 17.512 69.9568 17.512C70.2554 17.512 70.4048 17.864 70.4048 18.568C70.4048 19.8693 70.0208 20.8507 69.2528 21.512C68.4848 22.152 67.6314 22.472 66.6928 22.472C65.7754 22.472 64.9968 22.408 64.3568 22.28ZM64.0688 18.568C64.4314 17.8 64.6128 17.0533 64.6128 16.328C64.6128 15.6027 64.3781 15.24 63.9088 15.24C63.7168 15.24 63.5568 15.3787 63.4288 15.656C63.3008 15.9333 63.2368 16.2 63.2368 16.456C63.2368 17.3093 63.5141 18.0133 64.0688 18.568ZM73.2518 18.248C73.2518 20.104 74.0411 21.032 75.6198 21.032C77.3478 21.032 78.5104 20.4347 79.1078 19.24C79.3211 18.8133 79.4278 18.2693 79.4278 17.608C79.4278 16.9253 79.2678 16.296 78.9478 15.72C78.4144 14.8027 77.4971 13.7893 76.1958 12.68C74.0411 10.8453 72.9638 8.94667 72.9638 6.984C72.9638 5 73.5824 3.47467 74.8198 2.408C76.0571 1.34133 77.4758 0.807999 79.0758 0.807999C80.6758 0.807999 81.9451 1.21333 82.8838 2.024C83.8224 2.83467 84.2917 4.05067 84.2917 5.672C84.2917 6.73867 83.9291 7.66667 83.2038 8.456C82.4998 9.24533 81.5611 9.736 80.3878 9.928C80.9211 10.376 81.4544 10.8347 81.9878 11.304C82.4998 11.7733 82.9691 12.2853 83.3958 12.84C84.3344 14.0987 84.8038 15.6027 84.8038 17.352C84.8038 18.568 84.5158 19.6667 83.9398 20.648C83.3851 21.6293 82.6491 22.4613 81.7318 23.144C80.8358 23.8053 79.8224 24.3173 78.6918 24.68C77.5611 25.0427 76.5051 25.224 75.5238 25.224C73.4331 25.224 71.8118 24.744 70.6598 23.784C69.3158 22.696 68.6438 21.128 68.6438 19.08C68.6438 17.736 69.0811 16.4347 69.9557 15.176C70.8304 13.9173 71.7584 13.288 72.7398 13.288C73.5078 13.288 73.8918 13.5227 73.8918 13.992C73.8918 14.6747 73.7851 15.3573 73.5718 16.04C73.3584 16.7013 73.2518 17.4373 73.2518 18.248ZM79.4598 9.16C80.6758 7.944 81.2838 6.67467 81.2838 5.352C81.2838 4.94667 81.0704 4.60533 80.6438 4.328C80.1744 4.072 79.6838 3.944 79.1718 3.944C78.0198 3.944 77.1878 4.31733 76.6758 5.064C76.9318 5.98133 77.3051 6.76 77.7958 7.4C78.3078 8.04 78.8624 8.62667 79.4598 9.16ZM99.9818 22.28C98.2964 24.264 96.2698 25.256 93.9018 25.256C91.5551 25.256 89.7951 24.6587 88.6218 23.464C87.4484 22.248 86.8724 20.744 86.8938 18.952C86.8724 16.4133 87.6724 14.2267 89.2938 12.392C90.9151 10.5573 93.0378 9.64 95.6618 9.64C96.8564 9.64 97.8164 9.78933 98.5418 10.088C99.8004 10.6 100.43 11.08 100.43 11.528C100.43 11.8693 99.5444 12.0507 97.7738 12.072C96.0244 12.072 94.5524 12.68 93.3578 13.896C92.1844 15.0907 91.5978 16.6053 91.5978 18.44C91.5978 19.4 91.8751 20.2107 92.4298 20.872C93.0058 21.512 93.8058 21.832 94.8298 21.832C95.8751 21.832 96.7391 21.6187 97.4218 21.192C95.9071 20.168 95.1498 18.6853 95.1498 16.744C95.1284 15.72 95.4911 14.792 96.2378 13.96C97.0058 13.1067 97.9764 12.68 99.1498 12.68C100.344 12.6587 101.198 12.9787 101.71 13.64C102.222 14.3013 102.478 15.1547 102.478 16.2C102.478 17.224 102.232 18.312 101.742 19.464H101.934C102.872 19.4427 103.683 19.112 104.366 18.472C104.622 18.216 104.835 17.992 105.006 17.8C105.198 17.608 105.39 17.512 105.582 17.512C105.88 17.512 106.03 17.864 106.03 18.568C106.03 19.8693 105.646 20.8507 104.878 21.512C104.11 22.152 103.256 22.472 102.318 22.472C101.4 22.472 100.622 22.408 99.9818 22.28ZM99.6938 18.568C100.056 17.8 100.238 17.0533 100.238 16.328C100.238 15.6027 100.003 15.24 99.5338 15.24C99.3418 15.24 99.1818 15.3787 99.0538 15.656C98.9258 15.9333 98.8618 16.2 98.8618 16.456C98.8618 17.3093 99.1391 18.0133 99.6938 18.568ZM114.381 11.496C114.381 10.0667 115.49 9.352 117.709 9.352C118.263 9.352 118.605 9.53333 118.733 9.896C118.882 10.2587 118.957 10.8133 118.957 11.56C118.957 12.6053 118.722 14.2267 118.253 16.424C117.783 18.6213 117.559 20.104 117.581 20.872C117.581 21.2347 117.698 21.416 117.933 21.416C118.253 21.416 118.647 21.2133 119.117 20.808C119.586 20.4027 120.055 19.9653 120.525 19.496C120.994 19.0053 121.421 18.5573 121.805 18.152C122.21 17.7467 122.487 17.544 122.637 17.544C122.935 17.544 123.085 17.9067 123.085 18.632C123.085 20.1253 122.349 21.5653 120.877 22.952C118.402 24.4027 116.834 25.128 116.173 25.128C116.109 25.128 116.055 25.1173 116.013 25.096C115.202 25.096 114.626 24.8293 114.285 24.296C113.965 23.7627 113.762 23.0907 113.677 22.28C113.25 23.0693 112.663 23.752 111.917 24.328C111.17 24.8827 110.317 25.16 109.357 25.16C107.671 25.16 106.37 24.84 105.453 24.2C104.557 23.56 104.109 22.6107 104.109 21.352C104.109 20.7973 104.183 20.2853 104.333 19.816C104.503 19.3467 104.77 18.7707 105.133 18.088L106.061 10.216C106.722 9.704 107.671 9.448 108.909 9.448C109.89 9.448 110.445 10.088 110.573 11.368C110.679 12.4133 110.626 13.352 110.413 14.184C110.221 14.9947 109.954 16.0293 109.613 17.288C109.271 18.5253 109.101 19.624 109.101 20.584C109.101 21.352 109.581 21.736 110.541 21.736C111.586 21.736 112.493 20.8187 113.261 18.984C113.858 17.576 114.263 16.008 114.477 14.28C114.455 14.1093 114.434 13.896 114.413 13.64C114.413 13.3627 114.402 13.096 114.381 12.84C114.381 12.584 114.381 12.328 114.381 12.072V11.496ZM125.747 9.032C126.515 9.032 127.241 9.768 127.923 11.24C128.926 10.1947 130.163 9.672 131.635 9.672C133.129 9.672 134.249 10.0027 134.995 10.664C135.742 11.304 136.115 12.2213 136.115 13.416C136.115 14.5893 135.955 15.784 135.635 17C135.337 18.216 135.113 19.0907 134.963 19.624C134.835 20.136 134.771 20.5627 134.771 20.904C134.771 21.2453 134.889 21.416 135.123 21.416C135.443 21.416 135.838 21.2133 136.307 20.808C136.777 20.4027 137.246 19.9653 137.715 19.496C138.185 19.0053 138.611 18.5573 138.995 18.152C139.401 17.7467 139.678 17.544 139.827 17.544C140.126 17.544 140.275 17.9067 140.275 18.632C140.275 20.1253 139.539 21.5653 138.067 22.952C135.593 24.4027 134.014 25.128 133.331 25.128C133.267 25.128 133.225 25.1173 133.203 25.096C131.497 25.096 130.643 23.7307 130.643 21C130.643 19.8267 130.75 18.7493 130.963 17.768C131.198 16.7867 131.369 16.072 131.475 15.624C131.582 15.176 131.635 14.7173 131.635 14.248C131.635 13.48 131.187 13.096 130.291 13.096C129.417 13.096 128.574 13.7573 127.763 15.08C126.974 16.3813 126.441 17.736 126.163 19.144V19.368C126.163 20.0933 126.27 20.84 126.483 21.608C126.718 22.376 126.835 22.9093 126.835 23.208C126.835 23.9333 125.929 24.648 124.115 25.352C123.838 25.4587 123.593 25.512 123.379 25.512C122.846 25.512 122.473 25.2347 122.259 24.68C122.067 24.1253 121.971 23.2613 121.971 22.088C121.971 19.0587 122.089 16.872 122.323 15.528C122.643 13.5227 123.369 11.656 124.499 9.928C124.883 9.33067 125.299 9.032 125.747 9.032ZM158.327 17.448C158.711 17.448 158.903 17.9387 158.903 18.92C158.903 19.4533 158.679 20.104 158.231 20.872C157.783 21.6187 157.196 22.312 156.471 22.952C155.767 23.5707 154.977 24.0827 154.103 24.488C153.228 24.8933 152.375 25.096 151.543 25.096C150.369 25.096 149.601 24.136 149.239 22.216C147.959 24.2427 146.06 25.256 143.543 25.256C142.007 25.256 140.78 24.7867 139.863 23.848C138.945 22.9093 138.497 21.768 138.519 20.424C138.519 16.7973 139.724 13.9387 142.135 11.848C143.799 10.4187 145.527 9.704 147.319 9.704C148.129 9.704 148.769 9.768 149.239 9.896L149.975 10.088C150.849 5.97067 151.863 3.21867 153.015 1.832C153.399 1.36267 153.783 1.128 154.167 1.128C154.785 1.128 155.361 1.55467 155.895 2.408C156.364 3.112 156.599 3.72 156.599 4.232C156.599 4.744 156.524 5.24533 156.375 5.736C156.225 6.22666 156.033 6.68533 155.799 7.112C155.585 7.51733 155.34 7.92267 155.063 8.328C154.785 8.712 154.508 9.10667 154.231 9.512C153.612 11.816 153.153 14.3973 152.855 17.256C152.769 18.0667 152.727 18.7173 152.727 19.208C152.727 20.68 152.972 21.416 153.463 21.416C154.017 21.416 155.361 20.3067 157.495 18.088C157.879 17.6613 158.156 17.448 158.327 17.448ZM143.223 19.368C143.223 21.0107 143.831 21.832 145.047 21.832C145.772 21.832 146.497 21.5547 147.223 21C147.969 20.4453 148.545 19.5173 148.951 18.216C148.993 16.296 149.217 14.184 149.623 11.88C147.916 12.2213 146.423 13.0533 145.143 14.376C143.863 15.6987 143.223 17.3627 143.223 19.368Z" fill="url(#paint0_linear_7_3)"/>
<defs>
<linearGradient id="paint0_linear_7_3" x1="1" y1="13.5" x2="161.481" y2="13.5" gradientUnits="userSpaceOnUse">
<stop stop-color="#BECCC4"/>
<stop offset="0.325" stop-color="#AAB7B0"/>
<stop offset="0.415" stop-color="#A9B6AE"/>
<stop offset="0.53" stop-color="#F80A0A"/>
</linearGradient>
</defs>
</svg>
