<svg width="40" height="43" viewBox="0 0 47 45" fill="none" xmlns="http://www.w3.org/2000/svg">
<g clip-path="url(#clip0_33_2)">
<g filter="url(#filter0_dd_33_2)">
<path d="M41.7874 22.5C41.7874 32.2759 33.6255 40.25 23.4987 40.25C13.372 40.25 5.21014 32.2759 5.21014 22.5C5.21014 12.7241 13.372 4.75 23.4987 4.75C33.6255 4.75 41.7874 12.7241 41.7874 22.5Z" stroke="#BECCC4" stroke-width="2" shape-rendering="crispEdges"/>
</g>
<path opacity="0.05" d="M10.1115 21.9994C17.9764 18.5353 27.2137 14.7769 28.6363 14.2331C31.7726 13.0341 33.1402 14.2594 32.9261 16.2141C32.6628 18.6094 31.4148 25.5797 30.6471 30.5738C30.1977 33.4959 28.5697 34.3913 26.7325 33.2578C25.3389 32.3981 20.5476 29.3484 19.2871 28.3059C18.4278 27.5953 17.8289 26.7984 18.4384 25.9866C18.6168 25.7494 19.073 25.2713 19.3266 25.0331C20.5987 23.835 20.427 23.5772 18.8888 24.6469C18.7055 24.7744 17.6427 25.5234 17.2058 25.8066C16.1353 26.5003 15.1506 26.5378 13.4812 25.9866C12.1156 25.5356 10.8039 25.1878 9.97647 24.84C8.83362 24.3591 8.39577 22.755 10.1115 21.9994Z" fill="black"/>
<path opacity="0.07" d="M10.803 22.1166C18.1057 18.9431 27.0864 15.3066 28.4 14.7919C31.5479 13.5563 32.7062 14.2894 32.3676 16.6772C32.0532 18.8878 30.9374 25.7278 30.1552 30.3131C29.6942 33.0122 28.3479 33.6066 26.5946 32.5041C25.4961 31.8159 21.0751 28.9847 20.0027 28.1606C19.1733 27.5241 18.314 26.7891 19.3179 25.725C19.6536 25.3697 21.5072 23.6306 22.8931 22.3369C23.6965 21.5859 23.41 21.2156 22.4408 21.8606C20.6633 23.0447 17.7556 24.9188 17.2367 25.2591C16.2482 25.9059 15.3194 26.0616 13.703 25.5675C12.429 25.1775 11.1984 24.7997 10.5571 24.5569C9.12391 24.0169 9.10462 22.8544 10.803 22.1166Z" fill="black"/>
<path d="M11.4945 22.2347C18.2358 19.3519 26.9591 15.8372 28.1637 15.3506C31.3222 14.0775 32.2915 14.3212 31.8083 17.1412C31.4611 19.1681 30.46 25.8778 29.6615 30.0544C29.1879 32.5312 28.1251 32.8247 26.4547 31.7531C25.6514 31.2375 21.5959 28.6303 20.7154 28.0181C19.912 27.4603 18.8039 26.7891 20.1936 25.4672C20.6884 24.9966 23.9298 21.9872 26.4557 19.6453C26.7865 19.3378 26.3708 18.8325 25.9889 19.0791C22.5845 21.2737 17.8645 24.3197 17.2637 24.7162C16.3562 25.3153 15.4843 25.59 13.92 25.1531C12.7376 24.8231 11.5832 24.4294 11.1338 24.2794C9.40263 23.7019 9.81348 22.9537 11.4945 22.2347Z" fill="#BECCC4"/>
</g>
<defs>
<filter id="filter0_dd_33_2" x="0.210136" y="3.75" width="46.5772" height="45.5" filterUnits="userSpaceOnUse" color-interpolation-filters="sRGB">
<feFlood flood-opacity="0" result="BackgroundImageFix"/>
<feColorMatrix in="SourceAlpha" type="matrix" values="0 0 0 0 0 0 0 0 0 0 0 0 0 0 0 0 0 0 127 0" result="hardAlpha"/>
<feOffset dy="4"/>
<feGaussianBlur stdDeviation="2"/>
<feComposite in2="hardAlpha" operator="out"/>
<feColorMatrix type="matrix" values="0 0 0 0 0 0 0 0 0 0 0 0 0 0 0 0 0 0 0.25 0"/>
<feBlend mode="normal" in2="BackgroundImageFix" result="effect1_dropShadow_33_2"/>
<feColorMatrix in="SourceAlpha" type="matrix" values="0 0 0 0 0 0 0 0 0 0 0 0 0 0 0 0 0 0 127 0" result="hardAlpha"/>
<feOffset dy="4"/>
<feGaussianBlur stdDeviation="2"/>
<feComposite in2="hardAlpha" operator="out"/>
<feColorMatrix type="matrix" values="0 0 0 0 0 0 0 0 0 0 0 0 0 0 0 0 0 0 0.25 0"/>
<feBlend mode="normal" in2="effect1_dropShadow_33_2" result="effect2_dropShadow_33_2"/>
<feBlend mode="normal" in="SourceGraphic" in2="effect2_dropShadow_33_2" result="shape"/>
</filter>
<clipPath id="clip0_33_2">
<rect width="46.2927" height="45" fill="white" transform="translate(0.352417)"/>
</clipPath>
</defs>
</svg>
