<svg width="40" height="43" viewBox="0 0 48 45" fill="none" xmlns="http://www.w3.org/2000/svg">
<path d="M6.26273 39.8979L8.62582 31.5119L8.68401 31.3053L8.57443 31.1209C7.01732 28.4998 6.19879 25.5262 6.19973 22.4806C6.20441 12.9589 14.1803 5.1875 24.0114 5.1875C28.7814 5.18933 33.2523 6.99338 36.615 10.264C39.9764 13.5351 41.8239 17.8765 41.822 22.4942C41.8183 32.0158 33.8405 39.7881 24.0114 39.7881H24.0038C24.0038 39.7881 24.0037 39.7881 24.0037 39.7881C21.0206 39.7872 18.0892 39.0596 15.4877 37.6798L15.317 37.5893L15.1298 37.6371L6.26273 39.8979Z" stroke="#BECCC4"/>
<path fill-rule="evenodd" clip-rule="evenodd" d="M24.0114 4.6875C28.9097 4.68937 33.5062 6.54281 36.9637 9.90562C40.4202 13.2694 42.324 17.7394 42.3221 22.4944C42.3182 32.3053 34.1032 40.2881 24.0114 40.2881H24.0037C20.9397 40.2872 17.9277 39.54 15.2534 38.1216L5.54639 40.5966L8.14456 31.3762C6.54168 28.6781 5.69877 25.6162 5.69973 22.4803C5.70455 12.6694 13.9176 4.6875 24.0114 4.6875ZM24.0114 3.75C13.3872 3.75 4.74012 12.1519 4.7353 22.4803C4.73433 25.6369 5.5541 28.7475 7.10876 31.5009L4.61571 40.35C4.52505 40.6734 4.61764 41.0184 4.86068 41.2566C5.04392 41.4366 5.29178 41.535 5.54639 41.535C5.62836 41.535 5.71034 41.5247 5.79135 41.5041L15.1338 39.1228C17.8612 40.4991 20.9184 41.2256 24.0037 41.2266C34.6355 41.2266 43.2826 32.8237 43.2874 22.4953C43.2894 17.49 41.2863 12.7837 37.6475 9.24375C34.0067 5.70281 29.1643 3.75187 24.0114 3.75Z" fill="#CFD8DC"/>
<path fill-rule="evenodd" clip-rule="evenodd" d="M34.7763 12.03C31.9023 9.23436 28.0822 7.69405 24.0162 7.69312C15.6218 7.69312 8.79458 14.3269 8.79073 22.4812C8.78976 25.2759 9.5941 27.9966 11.1179 30.3525L11.4805 30.9122L9.94226 36.3694L15.7028 34.9012L16.2593 35.2219C18.5951 36.57 21.2743 37.2825 24.0056 37.2834H24.0114C32.4 37.2834 39.2272 30.6487 39.2301 22.4934C39.231 18.5419 37.6503 14.8256 34.7763 12.03Z" fill="#232526"/>
<path fill-rule="evenodd" clip-rule="evenodd" d="M19.4342 15.0422C19.0918 14.3015 18.7311 14.2865 18.4042 14.2734C18.137 14.2622 17.8323 14.2631 17.5275 14.2631C17.2227 14.2631 16.727 14.3747 16.3075 14.82C15.888 15.2653 14.7056 16.3406 14.7056 18.5287C14.7056 20.7169 16.3451 22.8319 16.5737 23.1281C16.8023 23.4244 19.7389 28.0584 24.3894 29.8415C28.2539 31.3228 29.0409 31.0284 29.8799 30.9544C30.719 30.8803 32.5871 29.879 32.968 28.8403C33.349 27.8015 33.349 26.9119 33.2352 26.7262C33.1204 26.5406 32.8157 26.43 32.3585 26.2069C31.9014 25.9837 29.6514 24.9084 29.2318 24.7603C28.8123 24.6122 28.5075 24.5381 28.2018 24.9834C27.8971 25.4278 27.0204 26.43 26.7532 26.7262C26.4861 27.0234 26.219 27.0609 25.7618 26.8378C25.3047 26.6147 23.831 26.1459 22.0825 24.6309C20.7227 23.4525 19.8045 21.9965 19.5374 21.5512C19.2702 21.1069 19.5084 20.8659 19.738 20.6437C19.9434 20.444 20.1951 20.1244 20.4247 19.8647C20.6532 19.605 20.7294 19.4194 20.8818 19.1231C21.0342 18.8259 20.958 18.5662 20.8432 18.344C20.7304 18.1209 19.8412 15.9215 19.4342 15.0422Z" fill="#BECCC4"/>
</svg>
